<svg version="1.1" xmlns="http://www.w3.org/2000/svg" xmlns:xlink="http://www.w3.org/1999/xlink" width="50.40002" height="50.8404" viewBox="0,0,50.40002,50.8404"><g transform="translate(-212.77431,-154.18327)"><g stroke-miterlimit="10"><path d="M219.65954,159.64974l41.01479,41.01479" fill="none" stroke="#000000" stroke-width="5" stroke-linecap="round"/><path d="M218.66564,204.23799c-1.76777,-1.76777 0.02572,-3.52572 0.02572,-3.52572c1.27129,-5.45612 0.59369,-6.27256 3.66684,-10.86978c1.37523,-0.32052 1.94014,-4.79757 3.35183,-4.83087c1.75046,-0.04129 8.60587,1.37502 10.35471,1.28917c5.00147,-0.24553 11.77899,-1.79271 15.75851,-5.07413c4.13731,-3.41152 5.50319,-9.41002 3.24129,-14.05159c-1.15118,-2.3623 -1.49315,-4.05725 -3.62885,-5.52532c0,0 -2,-1.5 -0.5,-3.5c1.5,-2 3.5,-0.5 3.5,-0.5c9.79634,7.73884 8.45658,23.5653 -2.68132,29.50437c-4.57252,2.43821 -10.3363,3.94104 -15.48184,4.14235c-2.47077,0.09666 -4.63668,-0.34422 -6.92983,-0.18829c-2.31878,4.46378 -3.60033,8.5181 -6.65135,12.60409l-0.49019,0.52572c0,0 -1.76777,1.76777 -3.53553,0z" fill="#000000" stroke="none" stroke-width="0.5" stroke-linecap="butt"/><path d="M215.27431,163.00316l6.31989,-6.31989" fill="none" stroke="#000000" stroke-width="5" stroke-linecap="round"/></g></g></svg>