<svg version="1.1" xmlns="http://www.w3.org/2000/svg" xmlns:xlink="http://www.w3.org/1999/xlink" width="52.76631" height="42.88403" viewBox="0,0,52.76631,42.88403"><g transform="translate(-213.61684,-158.55799)"><g fill="#000000" stroke="none" stroke-width="0.5" stroke-miterlimit="10"><path d="M215.57851,200.19033c-0.6436,-0.28756 -1.07794,-0.67303 -1.36974,-1.07913c-0.29282,-0.4054 -0.51775,-0.93505 -0.57787,-1.6243c-0.04146,-0.47536 0.01146,-0.8432 0.12391,-1.12731c0.74572,-3.38198 2.71548,-5.5715 4.25045,-8.29628c0.07011,-0.20383 0.13959,-0.32186 0.13959,-0.32186c0.11622,-0.19744 0.2317,-0.39548 0.3465,-0.59405c0.12307,-0.2481 0.24151,-0.50165 0.35424,-0.76175l0.098,-0.6483c0,0 0.22157,-1.03568 1.08476,-1.33763c1.58707,-2.91358 3.10371,-5.88135 4.77271,-8.72412c2.03236,-3.46167 4.77906,-5.92166 6.57116,-9.5881c0.21551,-0.44091 3.06009,-7.00793 3.80862,-7.24495c3.57751,-1.13283 5.80523,1.29899 8.21553,4.07273c6.09373,7.01256 11.59665,14.77046 17.35908,22.07343c3.32485,3.9896 7.87372,9.58892 4.35642,13.64131c-1.35247,1.55822 -6.29204,1.85246 -8.10645,2.09474c-8.62857,1.1522 -17.89259,0.6592 -26.92594,0.28263c-4.12369,-0.17191 -8.10743,0.09121 -12.28452,-0.34112l-1.17538,-0.21016c-0.29331,-0.00695 -0.63754,-0.0855 -1.04108,-0.2658zM247.92469,196.23609c3.79383,-0.0696 10.52029,0.5046 13.47343,-1.55921c1.71632,-1.19945 -2.99147,-6.0514 -3.798,-7.01447c-4.66675,-5.91317 -9.30838,-11.83999 -13.96582,-17.76393c-1.09023,-1.3867 -2.1673,-2.7841 -3.26942,-4.16112c-0.71015,-0.88728 -1.87283,-2.70233 -2.55576,-2.1746c-0.4162,0.32162 -0.14579,1.18897 -0.34636,1.71119c-0.52064,1.35556 -3.24703,6.96641 -3.98939,8.04025c-1.42025,2.05441 -3.24083,3.5339 -4.54352,5.75325c-2.31301,3.94061 -4.33457,8.12193 -6.656,12.06553c0,0 -0.05898,0.1002 -0.17571,0.2322c-0.96098,1.52756 -2.07488,2.91721 -2.87443,4.53511c9.64849,0.83305 19.30345,0.50819 28.70099,0.3358z"/></g></g></svg>