<svg version="1.1" xmlns="http://www.w3.org/2000/svg" xmlns:xlink="http://www.w3.org/1999/xlink" width="46.27274" height="46.27274" viewBox="0,0,46.27274,46.27274"><g transform="translate(-216.86363,-156.86363)"><g stroke-miterlimit="10"><path d="M219.36363,180c0,-11.39715 9.23922,-20.63637 20.63637,-20.63637c11.39715,0 20.63637,9.23922 20.63637,20.63637c0,11.39715 -9.23922,20.63637 -20.63637,20.63637c-11.39715,0 -20.63637,-9.23922 -20.63637,-20.63637z" fill="none" stroke="#000000" stroke-width="5"/><path d="M231.86296,174.09521c0,-1.38071 1.11929,-2.5 2.5,-2.5c1.38071,0 2.5,1.11929 2.5,2.5c0,1.38071 -1.11929,2.5 -2.5,2.5c-1.38071,0 -2.5,-1.11929 -2.5,-2.5z" fill="#000000" stroke="none" stroke-width="0.5"/><path d="M242.4391,173.83725c0,-1.38071 1.11929,-2.5 2.5,-2.5c1.38071,0 2.5,1.11929 2.5,2.5c0,1.38071 -1.11929,2.5 -2.5,2.5c-1.38071,0 -2.5,-1.11929 -2.5,-2.5z" fill="#000000" stroke="none" stroke-width="0.5"/><path d="M248.12077,190.77674c-2.23607,1.11803 -3.3541,-1.11803 -3.3541,-1.11803l-0.47334,-1.14365c-0.57313,-3.67075 -3.21503,-4.5771 -6.37516,-2.35332c-1.24029,0.87279 -1.76312,2.69212 -2.31112,3.92936c0,0 -1.03451,2.27592 -3.31042,1.24141c-2.27592,-1.03451 -1.24141,-3.31042 -1.24141,-3.31042c1.13442,-2.44587 1.5702,-4.18119 3.87979,-5.87292c4.44027,-3.2524 10.71664,-3.05604 13.53608,2.19042c0.51695,0.96195 0.48343,2.12993 0.72514,3.1949l0.04257,-0.11183c0,0 1.11803,2.23607 -1.11803,3.3541z" fill="#000000" stroke="none" stroke-width="0.5"/></g></g></svg>